<svg xmlns="http://www.w3.org/2000/svg" width="24" height="24" fill="none" stroke="currentColor" stroke-width="1.5"><path stroke-linecap="round" stroke-linejoin="round" d="m7.239 8.415 6.633-1.895m0 2.264V4.151L7.239 6.047v6.508m0 0v2.369a1.423 1.423 0 0 1-1.031 1.367l-.835.238a1.139 1.139 0 0 1-.625-2.191l1.46-.416a1.424 1.424 0 0 0 1.031-1.367ZM13.874 12.57v4.254m3.094-3.094v4.254m.26 1.803 2.513-1.256a.582.582 0 0 0 .321-.519v-6.437a.58.58 0 0 0-.84-.518l-1.994.996a.58.58 0 0 1-.52 0l-2.575-1.287a.582.582 0 0 0-.518 0l-2.514 1.257a.579.579 0 0 0-.321.518v6.438a.58.58 0 0 0 .84.518l1.995-.997a.576.576 0 0 1 .518 0l2.575 1.288a.587.587 0 0 0 .52 0v-.001Z" style="stroke-width:1px"/></svg>
